# xmcd CD database file
#
# Track frame offsets:
#	183
#	14528
#	29493
#	44453
#	60005
#	74510
#	87133
#	100513
#	114743
#	128548
#	148728
#	166268
#	183858
#	198520
#	209513
#	225970
#	240903
#	253948
#	268510
#	281920
#
# Disc length: 3929 seconds
#
# Revision: 0
# Processed by: cddbd v1.5PL3 Copyright (c) Steve Scherf et al.
# Submitted via: CDex 1.60beta1
#
DISCID=150f5714
DTITLE=Various Artist - Boogie Woogie, Vol.1: Piano Soloists
DYEAR=1900
DGENRE=Jazz
TTITLE0=Pine Top Smith/Pinetop's Boogie Woogie
TTITLE1=Pine Top Smith/Jump Steady Blues
TTITLE2=Montana Taylor/Detroit Rocks
TTITLE3=Montana Taylor/Indiana Avenue Stomp
TTITLE4=Speckled Red/The Dirty Dozens
TTITLE5=Speckled Red/Wilkins Street Stomp
TTITLE6=Romeo Nelson/Head Rag Hop
TTITLE7=Charles Davenport/Cow Cow Blues
TTITLE8=Charles Davenport/State Street Jive
TTITLE9=Jimmy Yancey/Yancey Special
TTITLE10=Jimmy Yancey/Midnight Stomp
TTITLE11=Clarence Lofton/Streamline Train
TTITLE12=Clarence Lofton/I Don't Know
TTITLE13=Albert Ammons/Shout For Joy
TTITLE14=Albert Ammons/Bass Goin' Crazy
TTITLE15=Meade "Lux" Lewis/Yancey Special
TTITLE16=Meade "Lux" Lewis/Honky Tonk Train Blues
TTITLE17=Pete Johnson/Blues On The Downbeat
TTITLE18=Pete Johnson/Kaycee On My Mind
TTITLE19=Art Hodes/Ross Tavern Boogie
EXTD=
EXTT0=
EXTT1=
EXTT2=
EXTT3=
EXTT4=
EXTT5=
EXTT6=
EXTT7=
EXTT8=
EXTT9=
EXTT10=
EXTT11=
EXTT12=
EXTT13=
EXTT14=
EXTT15=
EXTT16=
EXTT17=
EXTT18=
EXTT19=
PLAYORDER=
